# 3ds Max Wavefront OBJ Exporter v0.97b - (c)2007 guruware
# File Created: 31.05.2016 00:24:53

mtllib Wand.mtl

#
# object Wand
#

v  0.1000 0.0000 -0.1000
v  0.1000 0.0000 0.1000
v  -0.1000 0.0000 0.1000
v  -0.1000 0.0000 -0.1000
v  0.0750 0.1844 -0.0750
v  -0.0750 0.1844 -0.0750
v  -0.0750 0.1844 0.0750
v  0.0750 0.1844 0.0750
v  0.0822 0.1248 0.0822
v  -0.0822 0.1248 0.0822
v  -0.0822 0.0499 0.0822
v  0.0822 0.0499 0.0822
v  0.0822 0.1248 -0.0822
v  0.0822 0.0499 -0.0822
v  -0.0822 0.1248 -0.0822
v  -0.0822 0.0499 -0.0822
v  -0.0850 0.2000 0.0850
v  -0.0935 0.1901 0.0935
v  0.0935 0.1901 0.0935
v  0.0850 0.2000 0.0850
v  0.0935 0.1901 -0.0935
v  0.0850 0.2000 -0.0850
v  -0.0935 0.1901 -0.0935
v  -0.0850 0.2000 -0.0850
v  -0.1000 0.0222 0.1000
v  -0.1000 0.0222 -0.1000
v  0.1000 0.0222 0.1000
v  0.1000 0.0222 -0.1000
v  0.1000 0.1664 0.1000
v  -0.1000 0.1664 0.1000
v  -0.1000 0.1525 0.1000
v  0.1000 0.1525 0.1000
v  -0.1000 0.1664 -0.1000
v  -0.1000 0.1525 -0.1000
v  0.1000 0.1664 -0.1000
v  0.1000 0.1525 -0.1000
v  -0.0865 0.0222 0.0865
v  -0.0865 0.0222 -0.0865
v  0.0865 0.0222 0.0865
v  0.0865 0.0222 -0.0865
v  -0.0865 0.1525 0.0865
v  0.0865 0.1525 0.0865
v  -0.0865 0.1525 -0.0865
v  0.0865 0.1525 -0.0865
v  0.0750 0.2000 0.0750
v  -0.0750 0.2000 0.0750
v  0.0750 0.2000 -0.0750
v  -0.0750 0.2000 -0.0750
v  -0.0984 0.1799 0.0984
v  0.0984 0.1799 0.0984
v  0.0984 0.1799 -0.0984
v  -0.0984 0.1799 -0.0984
v  -0.0865 0.0499 0.0865
v  -0.0865 0.0499 -0.0865
v  0.0865 0.0499 0.0865
v  0.0865 0.0499 -0.0865
v  -0.0865 0.1248 0.0865
v  0.0865 0.1248 0.0865
v  -0.0865 0.1248 -0.0865
v  0.0865 0.1248 -0.0865
v  0.0981 0.0109 -0.0863
v  0.0945 0.0109 -0.0951
v  0.0945 0.1660 -0.0951
v  0.0981 0.1660 -0.0863
v  0.0857 0.0109 -0.0987
v  0.0857 0.1660 -0.0987
v  0.0769 0.0109 -0.0951
v  0.0769 0.1660 -0.0951
v  0.0733 0.0109 -0.0863
v  0.0733 0.1660 -0.0863
v  0.0769 0.0109 -0.0775
v  0.0769 0.1660 -0.0775
v  0.0857 0.0109 -0.0739
v  0.0857 0.1660 -0.0739
v  0.0945 0.0109 -0.0775
v  0.0945 0.1660 -0.0775
v  -0.0734 0.0109 -0.0863
v  -0.0771 0.0109 -0.0951
v  -0.0771 0.1660 -0.0951
v  -0.0734 0.1660 -0.0863
v  -0.0859 0.0109 -0.0987
v  -0.0859 0.1660 -0.0987
v  -0.0946 0.0109 -0.0951
v  -0.0946 0.1660 -0.0951
v  -0.0983 0.0109 -0.0863
v  -0.0983 0.1660 -0.0863
v  -0.0946 0.0109 -0.0775
v  -0.0946 0.1660 -0.0775
v  -0.0859 0.0109 -0.0739
v  -0.0859 0.1660 -0.0739
v  -0.0771 0.0109 -0.0775
v  -0.0771 0.1660 -0.0775
v  -0.0734 0.0109 0.0870
v  -0.0771 0.0109 0.0782
v  -0.0771 0.1660 0.0782
v  -0.0734 0.1660 0.0870
v  -0.0859 0.0109 0.0746
v  -0.0859 0.1660 0.0746
v  -0.0946 0.0109 0.0782
v  -0.0946 0.1660 0.0782
v  -0.0983 0.0109 0.0870
v  -0.0983 0.1660 0.0870
v  -0.0946 0.0109 0.0958
v  -0.0946 0.1660 0.0958
v  -0.0859 0.0109 0.0994
v  -0.0859 0.1660 0.0994
v  -0.0771 0.0109 0.0958
v  -0.0771 0.1660 0.0958
v  0.0995 0.0109 0.0870
v  0.0958 0.0109 0.0782
v  0.0958 0.1660 0.0782
v  0.0995 0.1660 0.0870
v  0.0870 0.0109 0.0746
v  0.0870 0.1660 0.0746
v  0.0783 0.0109 0.0782
v  0.0783 0.1660 0.0782
v  0.0746 0.0109 0.0870
v  0.0746 0.1660 0.0870
v  0.0783 0.0109 0.0958
v  0.0783 0.1660 0.0958
v  0.0870 0.0109 0.0994
v  0.0870 0.1660 0.0994
v  0.0958 0.0109 0.0958
v  0.0958 0.1660 0.0958
# 124 vertices

vn 0.0000 -1.0000 -0.0000
vn 0.0000 1.0000 -0.0000
vn 0.0000 0.0000 1.0000
vn 1.0000 0.0000 -0.0000
vn 0.0000 0.0000 -1.0000
vn -1.0000 0.0000 -0.0000
vn 0.0000 0.6496 0.7603
vn 0.0000 0.5090 0.8608
vn 0.7603 0.6496 -0.0000
vn 0.8608 0.5090 -0.0000
vn 0.0000 0.6496 -0.7603
vn 0.0000 0.5090 -0.8608
vn -0.7603 0.6496 -0.0000
vn -0.8608 0.5090 -0.0000
vn 0.0000 0.0579 0.9983
vn -0.9983 0.0579 -0.0000
vn 0.0000 0.0579 -0.9983
vn 0.9983 0.0579 -0.0000
vn 0.0000 0.2508 0.9680
vn 0.9680 0.2508 -0.0000
vn 0.0000 0.2508 -0.9680
vn -0.9680 0.2508 -0.0000
vn 0.7071 0.0000 -0.7071
vn -0.0000 0.0000 -1.0000
vn -0.7071 0.0000 -0.7071
vn -0.7071 0.0000 0.7071
vn -0.0000 0.0000 1.0000
vn 0.7071 0.0000 0.7071
vn 1.0000 0.0000 0.0000
vn -1.0000 0.0000 0.0000
# 30 vertex normals

vt 0.0000 1.0000 0.0000
vt 0.0000 0.0000 0.0000
vt 1.0000 0.0000 0.0000
vt 1.0000 1.0000 0.0000
vt 0.8750 0.8750 0.9222
vt 0.1250 0.8750 0.9222
vt 0.1250 0.1250 0.9222
vt 0.8750 0.1250 0.9222
vt 0.9111 0.6240 0.0889
vt 0.0889 0.6240 0.0889
vt 0.0889 0.2496 0.0889
vt 0.9111 0.2496 0.0889
vt 0.9111 0.6240 0.9111
vt 0.0889 0.6240 0.9111
vt 0.0889 0.2496 0.9111
vt 0.9111 0.2496 0.9111
vt 0.0750 1.0000 0.0750
vt 0.0327 0.9505 0.0327
vt 0.9673 0.9505 0.0327
vt 0.9250 1.0000 0.0750
vt 0.0750 1.0000 0.9250
vt 0.0327 0.9505 0.9673
vt 0.9673 0.9505 0.9673
vt 0.9250 1.0000 0.9250
vt 1.0000 0.1112 0.0000
vt 0.0000 0.1112 0.0000
vt 0.0000 0.0000 1.0000
vt 1.0000 0.0000 1.0000
vt 1.0000 0.1112 1.0000
vt 0.0000 0.1112 1.0000
vt 1.0000 0.8322 0.0000
vt 0.0000 0.8322 0.0000
vt 0.0000 0.7624 0.0000
vt 1.0000 0.7624 0.0000
vt 1.0000 0.8322 1.0000
vt 0.0000 0.8322 1.0000
vt 0.0000 0.7624 1.0000
vt 1.0000 0.7624 1.0000
vt 0.0000 1.0000 0.1112
vt 0.0000 0.0000 0.1112
vt 0.0675 0.0675 0.1112
vt 0.0675 0.9325 0.1112
vt 1.0000 0.0000 0.1112
vt 0.9325 0.0675 0.1112
vt 1.0000 1.0000 0.1112
vt 0.9325 0.9325 0.1112
vt 0.0000 0.0000 0.7624
vt 1.0000 0.0000 0.7624
vt 0.9325 0.0675 0.7624
vt 0.0675 0.0675 0.7624
vt 1.0000 1.0000 0.7624
vt 0.9325 0.9325 0.7624
vt 0.0000 1.0000 0.7624
vt 0.0675 0.9325 0.7624
vt 0.0750 0.0750 1.0000
vt 0.9250 0.0750 1.0000
vt 0.8750 0.1250 1.0000
vt 0.1250 0.1250 1.0000
vt 0.9250 0.9250 1.0000
vt 0.8750 0.8750 1.0000
vt 0.0750 0.9250 1.0000
vt 0.1250 0.8750 1.0000
vt 0.8750 1.0000 0.1250
vt 0.1250 1.0000 0.1250
vt 0.1250 0.9222 0.1250
vt 0.8750 0.9222 0.1250
vt 0.8750 1.0000 0.8750
vt 0.1250 1.0000 0.8750
vt 0.1250 0.9222 0.8750
vt 0.8750 0.9222 0.8750
vt 0.0081 0.8993 0.0081
vt 0.9919 0.8993 0.0081
vt 0.0081 0.8993 0.9919
vt 0.9919 0.8993 0.9919
vt 0.0675 0.1112 0.0675
vt 0.9325 0.1112 0.0675
vt 0.9325 0.2496 0.0675
vt 0.0675 0.2496 0.0675
vt 0.0675 0.1112 0.9325
vt 0.9325 0.1112 0.9325
vt 0.9325 0.2496 0.9325
vt 0.0675 0.2496 0.9325
vt 0.9325 0.7624 0.0675
vt 0.0675 0.7624 0.0675
vt 0.0675 0.6240 0.0675
vt 0.9325 0.6240 0.0675
vt 0.9325 0.7624 0.9325
vt 0.0675 0.7624 0.9325
vt 0.0675 0.6240 0.9325
vt 0.9325 0.6240 0.9325
vt 0.0675 0.9325 0.2496
vt 0.0675 0.0675 0.2496
vt 0.0889 0.0889 0.2496
vt 0.0889 0.9111 0.2496
vt 0.9325 0.0675 0.2496
vt 0.9111 0.0889 0.2496
vt 0.9325 0.9325 0.2496
vt 0.9111 0.9111 0.2496
vt 0.0675 0.0675 0.6240
vt 0.9325 0.0675 0.6240
vt 0.9111 0.0889 0.6240
vt 0.0889 0.0889 0.6240
vt 0.9325 0.9325 0.6240
vt 0.9111 0.9111 0.6240
vt 0.0675 0.9325 0.6240
vt 0.0889 0.9111 0.6240
vt 0.9315 0.0543 0.9907
vt 0.9755 0.0543 0.9724
vt 0.9755 0.8299 0.9724
vt 0.9315 0.8299 0.9907
vt 0.0276 0.0543 0.9755
vt 0.0715 0.0543 0.9937
vt 0.0715 0.8299 0.9937
vt 0.0276 0.8299 0.9755
vt 0.1155 0.0543 0.9755
vt 0.1155 0.8299 0.9755
vt 0.0245 0.0543 0.8845
vt 0.0685 0.0543 0.8663
vt 0.0685 0.8299 0.8663
vt 0.0245 0.8299 0.8845
vt 0.1125 0.0543 0.8845
vt 0.1125 0.8299 0.8845
vt 0.8845 0.0543 0.8875
vt 0.9285 0.0543 0.8693
vt 0.9285 0.8299 0.8693
vt 0.8845 0.8299 0.8875
vt 0.9724 0.0543 0.8875
vt 0.9724 0.8299 0.8875
vt 0.8875 0.0543 0.9724
vt 0.8875 0.8299 0.9724
vt 0.0715 0.8693 0.0543
vt 0.1155 0.8875 0.0543
vt 0.1337 0.9315 0.0543
vt 0.0093 0.9315 0.0543
vt 0.1155 0.9755 0.0543
vt 0.0715 0.9937 0.0543
vt 0.0276 0.9755 0.0543
vt 0.0276 0.8875 0.0543
vt 0.9724 0.9755 0.8299
vt 0.9285 0.9937 0.8299
vt 0.8845 0.9755 0.8299
vt 0.9724 0.8875 0.8299
vt 0.8663 0.9315 0.8299
vt 0.8845 0.8875 0.8299
vt 0.9285 0.8693 0.8299
vt 0.9907 0.9315 0.8299
vt 0.9315 0.0543 0.1329
vt 0.9755 0.0543 0.1147
vt 0.9755 0.8299 0.1147
vt 0.9315 0.8299 0.1329
vt 0.8853 0.0543 0.9755
vt 0.9293 0.0543 0.9937
vt 0.9293 0.8299 0.9937
vt 0.8853 0.8299 0.9755
vt 0.9732 0.0543 0.9755
vt 0.9732 0.8299 0.9755
vt 0.0245 0.0543 0.0268
vt 0.0685 0.0543 0.0085
vt 0.0685 0.8299 0.0085
vt 0.0245 0.8299 0.0268
vt 0.1125 0.0543 0.0268
vt 0.1125 0.8299 0.0268
vt 0.0268 0.0543 0.8875
vt 0.0707 0.0543 0.8693
vt 0.0707 0.8299 0.8693
vt 0.0268 0.8299 0.8875
vt 0.1147 0.0543 0.8875
vt 0.1147 0.8299 0.8875
vt 0.8875 0.0543 0.1147
vt 0.8875 0.8299 0.1147
vt 0.9293 0.8693 0.0543
vt 0.9732 0.8875 0.0543
vt 0.9915 0.9315 0.0543
vt 0.8671 0.9315 0.0543
vt 0.9732 0.9755 0.0543
vt 0.9293 0.9937 0.0543
vt 0.8853 0.9755 0.0543
vt 0.8853 0.8875 0.0543
vt 0.1147 0.9755 0.8299
vt 0.0707 0.9937 0.8299
vt 0.0268 0.9755 0.8299
vt 0.1147 0.8875 0.8299
vt 0.0085 0.9315 0.8299
vt 0.0268 0.8875 0.8299
vt 0.0707 0.8693 0.8299
vt 0.1329 0.9315 0.8299
vt 0.0650 0.0543 0.1329
vt 0.1089 0.0543 0.1147
vt 0.1089 0.8299 0.1147
vt 0.0650 0.8299 0.1329
vt 0.8853 0.0543 0.1089
vt 0.9293 0.0543 0.1271
vt 0.9293 0.8299 0.1271
vt 0.8853 0.8299 0.1089
vt 0.9732 0.0543 0.1089
vt 0.9732 0.8299 0.1089
vt 0.8911 0.0543 0.0268
vt 0.9350 0.0543 0.0085
vt 0.9350 0.8299 0.0085
vt 0.8911 0.8299 0.0268
vt 0.9790 0.0543 0.0268
vt 0.9790 0.8299 0.0268
vt 0.0268 0.0543 0.0210
vt 0.0707 0.0543 0.0028
vt 0.0707 0.8299 0.0028
vt 0.0268 0.8299 0.0210
vt 0.1147 0.0543 0.0210
vt 0.1147 0.8299 0.0210
vt 0.0210 0.0543 0.1147
vt 0.0210 0.8299 0.1147
vt 0.9293 0.0028 0.0543
vt 0.9732 0.0210 0.0543
vt 0.9915 0.0650 0.0543
vt 0.8671 0.0650 0.0543
vt 0.9732 0.1089 0.0543
vt 0.9293 0.1271 0.0543
vt 0.8853 0.1089 0.0543
vt 0.8853 0.0210 0.0543
vt 0.1147 0.1089 0.8299
vt 0.0707 0.1271 0.8299
vt 0.0268 0.1089 0.8299
vt 0.1147 0.0210 0.8299
vt 0.0085 0.0650 0.8299
vt 0.0268 0.0210 0.8299
vt 0.0707 0.0028 0.8299
vt 0.1329 0.0650 0.8299
vt 0.0650 0.0543 0.9974
vt 0.1089 0.0543 0.9792
vt 0.1089 0.8299 0.9792
vt 0.0650 0.8299 0.9974
vt 0.0208 0.0543 0.1089
vt 0.0648 0.0543 0.1271
vt 0.0648 0.8299 0.1271
vt 0.0208 0.8299 0.1089
vt 0.1087 0.0543 0.1089
vt 0.1087 0.8299 0.1089
vt 0.8911 0.0543 0.8913
vt 0.9350 0.0543 0.8731
vt 0.9350 0.8299 0.8731
vt 0.8911 0.8299 0.8913
vt 0.9790 0.0543 0.8913
vt 0.9790 0.8299 0.8913
vt 0.8913 0.0543 0.0210
vt 0.9352 0.0543 0.0028
vt 0.9352 0.8299 0.0028
vt 0.8913 0.8299 0.0210
vt 0.9792 0.0543 0.0210
vt 0.9792 0.8299 0.0210
vt 0.0210 0.0543 0.9792
vt 0.0210 0.8299 0.9792
vt 0.0648 0.0028 0.0543
vt 0.1087 0.0210 0.0543
vt 0.1269 0.0650 0.0543
vt 0.0026 0.0650 0.0543
vt 0.1087 0.1089 0.0543
vt 0.0648 0.1271 0.0543
vt 0.0208 0.1089 0.0543
vt 0.0208 0.0210 0.0543
vt 0.9792 0.1089 0.8299
vt 0.9352 0.1271 0.8299
vt 0.8913 0.1089 0.8299
vt 0.9792 0.0210 0.8299
vt 0.8731 0.0650 0.8299
vt 0.8913 0.0210 0.8299
vt 0.9352 0.0028 0.8299
vt 0.9974 0.0650 0.8299
# 266 texture coords

g Wand
usemtl 02___Default
s 1
f 1/1/1 2/2/1 3/3/1 4/4/1 
f 5/5/2 6/6/2 7/7/2 8/8/2 
f 9/9/3 10/10/3 11/11/3 12/12/3 
s 2
f 13/13/4 9/14/4 12/15/4 14/16/4 
s 1
f 15/13/5 13/14/5 14/15/5 16/16/5 
s 2
f 10/9/6 15/10/6 16/11/6 11/12/6 
s 1
f 17/17/7 18/18/8 19/19/8 20/20/7 
s 2
f 20/21/9 19/22/10 21/23/10 22/24/9 
s 1
f 22/21/11 21/22/12 23/23/12 24/24/11 
s 2
f 24/17/13 23/18/14 18/19/14 17/20/13 
f 4/2/6 3/3/6 25/25/6 26/26/6 
s 4
f 3/2/3 2/3/3 27/25/3 25/26/3 
s 2
f 2/27/4 1/28/4 28/29/4 27/30/4 
s 4
f 1/27/5 4/28/5 26/29/5 28/30/5 
s 1
f 29/31/15 30/32/15 31/33/3 32/34/3 
s 2
f 30/31/16 33/32/16 34/33/6 31/34/6 
s 1
f 33/35/17 35/36/17 36/37/5 34/38/5 
s 2
f 35/35/18 29/36/18 32/37/4 36/38/4 
s 8
f 26/39/2 25/40/2 37/41/2 38/42/2 
f 25/40/2 27/43/2 39/44/2 37/41/2 
f 27/43/2 28/45/2 40/46/2 39/44/2 
f 28/45/2 26/39/2 38/42/2 40/46/2 
s 4
f 32/47/1 31/48/1 41/49/1 42/50/1 
f 31/48/1 34/51/1 43/52/1 41/49/1 
f 34/51/1 36/53/1 44/54/1 43/52/1 
f 36/53/1 32/47/1 42/50/1 44/54/1 
f 17/55/2 20/56/2 45/57/2 46/58/2 
f 20/56/2 22/59/2 47/60/2 45/57/2 
f 22/59/2 24/61/2 48/62/2 47/60/2 
f 24/61/2 17/55/2 46/58/2 48/62/2 
s 2
f 46/63/5 45/64/5 8/65/5 7/66/5 
s 8
f 45/67/6 47/68/6 5/69/6 8/70/6 
s 2
f 47/67/3 48/68/3 6/69/3 5/70/3 
s 8
f 48/63/4 46/64/4 7/65/4 6/66/4 
s 1
f 49/71/19 30/32/15 29/31/15 50/72/19 
s 2
f 50/73/20 29/36/18 35/35/18 51/74/20 
s 1
f 51/73/21 35/36/17 33/35/17 52/74/21 
s 2
f 52/71/22 33/32/16 30/31/16 49/72/22 
s 1
f 18/18/8 49/71/19 50/72/19 19/19/8 
s 2
f 19/22/10 50/73/20 51/74/20 21/23/10 
s 1
f 21/22/12 51/73/21 52/74/21 23/23/12 
s 2
f 23/18/14 52/71/22 49/72/22 18/19/14 
s off
f 38/75/6 37/76/6 53/77/6 54/78/6 
f 37/75/3 39/76/3 55/77/3 53/78/3 
f 39/79/4 40/80/4 56/81/4 55/82/4 
f 40/79/5 38/80/5 54/81/5 56/82/5 
f 42/83/3 41/84/3 57/85/3 58/86/3 
f 41/83/6 43/84/6 59/85/6 57/86/6 
f 43/87/5 44/88/5 60/89/5 59/90/5 
f 44/87/4 42/88/4 58/89/4 60/90/4 
f 54/91/2 53/92/2 11/93/2 16/94/2 
f 53/92/2 55/95/2 12/96/2 11/93/2 
f 55/95/2 56/97/2 14/98/2 12/96/2 
f 56/97/2 54/91/2 16/94/2 14/98/2 
f 58/99/1 57/100/1 10/101/1 9/102/1 
f 57/100/1 59/103/1 15/104/1 10/101/1 
f 59/103/1 60/105/1 13/106/1 15/104/1 
f 60/105/1 58/99/1 9/102/1 13/106/1 
s 8
f 61/107/4 62/108/23 63/109/23 64/110/4 
f 62/111/23 65/112/24 66/113/24 63/114/23 
f 65/112/24 67/115/25 68/116/25 66/113/24 
f 67/117/25 69/118/6 70/119/6 68/120/25 
f 69/118/6 71/121/26 72/122/26 70/119/6 
f 71/123/26 73/124/27 74/125/27 72/126/26 
f 73/124/27 75/127/28 76/128/28 74/125/27 
f 75/129/28 61/107/4 64/110/4 76/130/28 
s 1
f 73/131/1 71/132/1 69/133/1 61/134/1 
f 69/133/1 67/135/1 65/136/1 61/134/1 
f 65/136/1 62/137/1 61/134/1 
f 75/138/1 73/131/1 61/134/1 
f 63/139/2 66/140/2 68/141/2 76/142/2 
f 68/141/2 70/143/2 72/144/2 76/142/2 
f 72/144/2 74/145/2 76/142/2 
f 64/146/2 63/139/2 76/142/2 
s 8
f 77/147/4 78/148/23 79/149/23 80/150/29 
f 78/151/23 81/152/5 82/153/5 79/154/23 
f 81/152/5 83/155/25 84/156/25 82/153/5 
f 83/157/25 85/158/30 86/159/30 84/160/25 
f 85/158/30 87/161/26 88/162/26 86/159/30 
f 87/163/26 89/164/27 90/165/27 88/166/26 
f 89/164/27 91/167/28 92/168/28 90/165/27 
f 91/169/28 77/147/4 80/150/29 92/170/28 
s 1
f 89/171/1 87/172/1 85/173/1 77/174/1 
f 85/173/1 83/175/1 81/176/1 77/174/1 
f 81/176/1 78/177/1 77/174/1 
f 91/178/1 89/171/1 77/174/1 
f 79/179/2 82/180/2 84/181/2 92/182/2 
f 84/181/2 86/183/2 88/184/2 92/182/2 
f 88/184/2 90/185/2 92/182/2 
f 80/186/2 79/179/2 92/182/2 
s 8
f 93/187/4 94/188/23 95/189/23 96/190/4 
f 94/191/23 97/192/5 98/193/5 95/194/23 
f 97/192/5 99/195/25 100/196/25 98/193/5 
f 99/197/25 101/198/30 102/199/30 100/200/25 
f 101/198/30 103/201/26 104/202/26 102/199/30 
f 103/203/26 105/204/27 106/205/27 104/206/26 
f 105/204/27 107/207/28 108/208/28 106/205/27 
f 107/209/28 93/187/4 96/190/4 108/210/28 
s 1
f 105/211/1 103/212/1 101/213/1 93/214/1 
f 101/213/1 99/215/1 97/216/1 93/214/1 
f 97/216/1 94/217/1 93/214/1 
f 107/218/1 105/211/1 93/214/1 
f 95/219/2 98/220/2 100/221/2 108/222/2 
f 100/221/2 102/223/2 104/224/2 108/222/2 
f 104/224/2 106/225/2 108/222/2 
f 96/226/2 95/219/2 108/222/2 
s 8
f 109/227/4 110/228/23 111/229/23 112/230/4 
f 110/231/23 113/232/24 114/233/24 111/234/23 
f 113/232/24 115/235/25 116/236/25 114/233/24 
f 115/237/25 117/238/6 118/239/6 116/240/25 
f 117/238/6 119/241/26 120/242/26 118/239/6 
f 119/243/26 121/244/27 122/245/27 120/246/26 
f 121/244/27 123/247/28 124/248/28 122/245/27 
f 123/249/28 109/227/4 112/230/4 124/250/28 
s 1
f 121/251/1 119/252/1 117/253/1 109/254/1 
f 117/253/1 115/255/1 113/256/1 109/254/1 
f 113/256/1 110/257/1 109/254/1 
f 123/258/1 121/251/1 109/254/1 
f 111/259/2 114/260/2 116/261/2 124/262/2 
f 116/261/2 118/263/2 120/264/2 124/262/2 
f 120/264/2 122/265/2 124/262/2 
f 112/266/2 111/259/2 124/262/2 
# 106 polygons - 16 triangles

